<?xml version="1.0" standalone="no"?>
<!DOCTYPE svg PUBLIC "-//W3C//DTD SVG 20010904//EN"
 "http://www.w3.org/TR/2001/REC-SVG-20010904/DTD/svg10.dtd">
<svg version="1.0" xmlns="http://www.w3.org/2000/svg"
 width="384.000000pt" height="384.000000pt" viewBox="0 0 384.000000 384.000000"
 preserveAspectRatio="xMidYMid meet">
<metadata>
Created by potrace 1.11, written by Peter Selinger 2001-2013
</metadata>
<g transform="translate(0.000000,384.000000) scale(0.100000,-0.100000)"
fill="#000000" stroke="none">
<path d="M635 3762 c-1 -1 -18 -5 -36 -7 -19 -2 -41 -6 -49 -8 -73 -19 -110
-32 -110 -39 0 -4 -6 -8 -13 -8 -18 0 -119 -71 -158 -111 -75 -77 -128 -173
-153 -279 -13 -57 -15 -230 -13 -1395 2 -1268 3 -1332 21 -1380 31 -85 63
-150 80 -164 9 -7 16 -18 16 -24 0 -5 26 -34 57 -64 88 -83 201 -141 313 -159
46 -8 2579 -10 2650 -2 87 9 218 63 276 111 119 100 204 239 222 365 4 26 7
639 7 1362 l0 1315 -22 70 c-69 218 -258 382 -473 410 -51 7 -2608 14 -2615 7z"/>
</g>
</svg>
